<?xml version="1.0" standalone="no"?><!DOCTYPE svg PUBLIC "-//W3C//DTD SVG 1.1//EN" "http://www.w3.org/Graphics/SVG/1.1/DTD/svg11.dtd"><svg t="1709551928683" class="icon" viewBox="0 0 1024 1024" version="1.1" xmlns="http://www.w3.org/2000/svg" p-id="2352" xmlns:xlink="http://www.w3.org/1999/xlink" width="128" height="128"><path d="M727.986163 332.934691c-38.082996 19.738312-72.269524 38.395851-107.366177 55.17626-13.936272 6.683722-18.202478 14.93172-18.117153 30.005647 0.62571 115.500408 0.341296 231.000817 0.398179 346.501225 0 6.740605 0.711034 13.48121 1.25142 22.554008 38.282086-19.795194 73.350296-38.424292 108.930452-56.00106 11.604079-5.716716 15.301458-12.997707 15.216134-25.824765-0.568827-85.46632-0.284414-170.932641-0.284414-256.427403v-115.983912z m-90.443561-80.830377c-39.846361-20.762201-75.71093-40.24454-112.42874-57.991956-7.25255-3.498289-19.28325-3.555171-26.422034 0.056883-87.229685 44.226332-173.321716 90.727974-261.177112 133.674445-29.579026 14.476658-43.515298 31.001095-39.362857 64.874767 3.356082 27.303716 0.682593 55.403791 0.682593 87.030596l156.20001-80.403756v23.151276c0 94.652883 2.161544 189.334208-1.109213 283.844885-1.279862 36.9169 9.186563 57.280922 43.316208 70.250187 27.474365 10.494866 52.90095 26.365151 82.679066 41.609726v-23.236601c-0.028441-134.442362 2.161544-268.941606-1.336744-403.298643-1.137655-43.885036 9.75539-68.941884 51.706412-84.726845 36.063659-13.566534 69.197856-34.982887 107.252411-54.834964z m371.842487 3.128551v195.136248c0 99.886096-0.255972 199.800633 0.284414 299.686728 0.085324 13.367444-3.839585 20.819084-16.040933 27.104627-155.5743 80.48908-310.864187 161.433223-466.097192 242.491131-10.011363 5.204771-18.145595 5.944247-28.867991 0.369738A95150.977075 95150.977075 0 0 0 32.139575 778.212799c-12.571086-6.484633-17.918064-13.196796-17.889623-27.957868 0.568827-159.271679 0.483503-318.60024 0.113766-477.90036-0.028441-13.310562 3.697378-20.875966 16.154699-27.303717C186.803752 164.675539 342.719348 83.560749 499.061566 3.185434c6.683722-3.412965 17.974947-4.436854 24.345814-1.137655C684.243334 84.982817 844.70955 168.742655 1005.26109 252.388728c1.137655 0.568827 2.161544 1.45051 4.123999 2.815696z" fill="#E7002E" p-id="2353"></path></svg>